<?xml version="1.0" standalone="no"?>
<!DOCTYPE svg PUBLIC "-//W3C//DTD SVG 20010904//EN"
 "http://www.w3.org/TR/2001/REC-SVG-20010904/DTD/svg10.dtd">
<svg version="1.0" xmlns="http://www.w3.org/2000/svg"
 width="360.000000pt" height="360.000000pt" viewBox="0 0 360.000000 360.000000"
 preserveAspectRatio="xMidYMid meet">

<g transform="translate(0.000000,360.000000) scale(0.100000,-0.100000)"
fill="#000000" stroke="none">
<path d="M1713 2930 c-26 -10 -264 -184 -548 -399 -104 -79 -356 -268 -560
-421 -203 -153 -381 -290 -394 -304 -47 -50 -17 -130 48 -128 41 1 52 8 255
162 97 74 192 145 209 157 18 12 259 193 537 402 415 313 511 381 537 381 30
0 170 -100 598 -427 44 -33 197 -148 340 -255 143 -107 327 -244 408 -306 137
-103 152 -112 192 -112 36 0 48 5 60 24 9 14 15 39 13 58 -3 29 -19 45 -148
146 -80 63 -183 144 -230 180 l-85 67 -5 211 c-7 288 -5 286 -219 288 -152 1
-193 -9 -216 -55 -8 -15 -15 -44 -15 -64 0 -20 -5 -35 -12 -35 -6 0 -134 92
-284 205 -150 113 -285 212 -301 220 -31 16 -144 19 -180 5z"/>
<path d="M1715 2418 c-22 -11 -78 -50 -125 -86 -327 -252 -477 -368 -486 -377
-7 -5 -24 -19 -40 -30 -15 -11 -41 -31 -57 -45 -17 -13 -98 -75 -181 -137 -83
-62 -156 -124 -164 -138 -17 -34 -18 -965 -1 -1047 21 -97 100 -196 178 -224
51 -18 566 -20 578 -1 4 6 9 179 9 383 2 404 0 391 62 473 45 60 85 71 275 71
189 0 239 -9 291 -52 72 -59 70 -48 76 -488 l5 -395 293 -3 c270 -2 297 -1
336 17 63 27 120 84 147 144 23 51 24 59 31 522 8 487 5 575 -17 611 -8 12
-73 67 -147 122 -141 108 -350 268 -512 392 -291 223 -374 284 -403 296 -46
20 -101 17 -148 -8z"/>
</g>
</svg>
